<svg xmlns="http://www.w3.org/2000/svg" xmlns:xlink="http://www.w3.org/1999/xlink" width="24" height="24" preserveAspectRatio="xMidYMid meet" viewBox="0 0 24 24" style="-ms-transform: rotate(360deg); -webkit-transform: rotate(360deg); transform: rotate(360deg);"><path d="M6 22h15v-2H6.012C5.55 19.988 5 19.805 5 19s.55-.988 1.012-1H21V4c0-1.103-.897-2-2-2H6c-1.206 0-3 .799-3 3v14c0 2.201 1.794 3 3 3zM5 8V5c0-.805.55-.988 1-1h13v12H5V8z" fill="#626262"/><path d="M8 6h9v2H8z" fill="#626262"/><rect x="0" y="0" width="24" height="24" fill="rgba(0, 0, 0, 0)" /></svg>